<?xml version="1.0" encoding="utf-8"?>
<!-- Generator: Adobe Illustrator 20.1.0, SVG Export Plug-In . SVG Version: 6.00 Build 0)  -->
<svg version="1.1" id="Jofege" xmlns="http://www.w3.org/2000/svg" xmlns:xlink="http://www.w3.org/1999/xlink" x="0px" y="0px"
	 viewBox="0 0 198.4 198.4" style="enable-background:new 0 0 198.4 198.4;" xml:space="preserve">
<style type="text/css">
	.st0{fill:#FFFFFF;}
	.st1{fill:#2E476B;}
	.st2{fill:#A13B35;}
</style>
<circle class="st0" cx="145" cy="140.1" r="43.9"/>
<circle class="st0" cx="54.2" cy="140.1" r="43.9"/>
<circle class="st0" cx="98.9" cy="60" r="43.9"/>
<path class="st1" d="M80.5,64.9c0,6.1-2.4,7.8-6.1,7.8c-1.8,0-3.3-0.3-4.6-0.7l-1,7.2c1.8,0.6,4.5,0.9,6.6,0.9
	c8.7,0,14.1-3.9,14.1-15.2v-25h-8.9L80.5,64.9L80.5,64.9z"/>
<path class="st1" d="M110.6,73.1L110.6,73.1c-6.1,0-9.6-5.8-9.6-13.3c0-7.4,3.4-13.4,9.6-13.4s9.5,6.1,9.5,13.2
	C120.1,67.4,116.7,73.1,110.6,73.1L110.6,73.1z M129.6,59.3c0-10.9-6.6-20.1-18.8-20.1c-11.6,0-19.3,8.9-19.3,20.8
	c0,11.3,6.9,20.2,18.6,20.2l0,0C121.8,80.2,129.6,72.4,129.6,59.3z"/>
<polygon class="st1" points="63.1,143.1 77.7,143.1 77.7,135.8 63.1,135.8 63.1,127.6 78.6,127.6 78.6,120.2 54.2,120.2 54.2,159.9 
	79.4,159.9 79.4,152.5 63.1,152.5 "/>
<polygon class="st1" points="27.9,159.9 36.8,159.9 36.8,143.9 51,143.9 51,136.6 36.8,136.6 36.8,127.6 52,127.6 52,120.2 
	27.9,120.2 "/>
<polygon class="st1" points="159.4,152.5 159.4,143.1 174,143.1 174,135.8 159.4,135.8 159.4,127.6 174.9,127.6 174.9,120.2 
	150.5,120.2 150.5,159.9 175.7,159.9 175.7,152.5 "/>
<path class="st1" d="M133.4,144.2h6.1v8.3c-0.7,0.3-2.4,0.6-4.4,0.6c-7.4,0-12.5-4.8-12.5-13c0-8.6,5.7-12.8,13.2-12.8
	c4.4,0,7,0.7,9.2,1.7l1.9-7.2c-1.9-0.9-5.9-1.9-11-1.9c-13,0-22.6,7.5-22.7,20.7c0,5.8,2,11,5.6,14.5c3.7,3.4,8.9,5.3,16.1,5.3
	c5.2,0,10.5-1.3,13.2-2.2v-20.9h-14.7V144.2z"/>
<path class="st2" d="M145,89.7c-2.7,0-5.3,0.2-7.8,0.6c6.9-8.5,11.1-19.4,11.1-31.1c0-27.2-22.2-49.4-49.4-49.4
	C71.6,9.8,49.5,32,49.5,59.2c0,11.7,4.1,22.5,11,31c-2.3-0.3-4.7-0.5-7.1-0.5C26.2,89.7,4,111.9,4,139.2s22.2,49.4,49.4,49.4
	c20.7,0,38.5-12.8,45.8-31c7.3,18.1,25.1,31,45.8,31c27.3,0,49.4-22.2,49.4-49.4C194.4,111.9,172.3,89.7,145,89.7z M57.8,59.2
	c0-22.7,18.4-41.1,41.1-41.1s41.2,18.4,41.2,41.1s-18.5,41.2-41.2,41.2S57.8,81.9,57.8,59.2z M53.4,180.3
	c-22.7,0-41.2-18.5-41.2-41.2s18.5-41.2,41.2-41.2s41.1,18.5,41.1,41.2C94.5,161.9,76.1,180.3,53.4,180.3z M91.8,108.1
	c2.3,0.3,4.7,0.5,7.1,0.5c2.7,0,5.3-0.2,7.8-0.6c-3.1,3.8-5.6,8.1-7.5,12.7C97.4,116.1,94.9,111.9,91.8,108.1z M145,180.3
	c-22.7,0-41.1-18.5-41.1-41.2s18.4-41.2,41.1-41.2s41.2,18.5,41.2,41.2C186.2,161.9,167.7,180.3,145,180.3z"/>
</svg>
